# xmcd
#
# Track frame offsets: 
#        150
#        16065
#        30235
#        44697
#        61320
#        72647
#        88527
#        100005
#        114182
#        125482
#        139990
#        156230
#
# Disc length: 2383 seconds
#
# Revision: 0
# Processed by: cddbd v1.5.1PL0 Copyright (c) Steve Scherf et al.
# Submitted via: ExactAudioCopy v0.95a3
#
DISCID=9b094d0c
DTITLE=Bob Freedman - Unsigned(But Plugged In)
DYEAR=1995
DGENRE=Country
TTITLE0=California City Boy
TTITLE1=Burnin' Up The Blacktop
TTITLE2=All My Friends Were Rockin' And Rollin' 
TTITLE3=Red, White, And Blew It
TTITLE4=If My Guitar Had Legs
TTITLE5=Called 9-1-1 (And Got Put On Hold) 
TTITLE6=L.A. County Jail 
TTITLE7=Ten Years And Counting 
TTITLE8=The Ballad Of Number 24
TTITLE9=Country In My Bones
TTITLE10=Bay Bridge Boogie
TTITLE11=I Wanna Be A Cowboy Too
EXTD=
EXTT0=
EXTT1=
EXTT2=
EXTT3=
EXTT4=
EXTT5=
EXTT6=
EXTT7=
EXTT8=
EXTT9=
EXTT10=
EXTT11=
PLAYORDER=
